<svg width="42" height="38" viewBox="0 0 42 38" fill="none" xmlns="http://www.w3.org/2000/svg">
<path d="M40.25 4.76583C40.25 4.76583 36.7185 6.65316 34.755 7.18833C33.701 6.09189 32.3003 5.31476 30.7423 4.96205C29.1843 4.60933 27.5441 4.69806 26.0436 5.21621C24.5432 5.73437 23.2548 6.65697 22.3527 7.85921C21.4507 9.06146 20.9785 10.4854 21 11.9383V13.5217C17.9246 13.5938 14.8772 12.9767 12.1293 11.7253C9.3813 10.4739 7.01805 8.627 5.25 6.34916C5.25 6.34916 -1.75 20.5992 14 26.9325C10.3959 29.1459 6.10252 30.2558 1.75 30.0992C17.5 38.0158 36.75 30.0992 36.75 11.8908C36.75 11.4507 36.701 11.0105 36.61 10.5767C38.395 8.98383 40.25 4.76583 40.25 4.76583Z" stroke="black" stroke-width="1.5" stroke-linecap="round" stroke-linejoin="round"/>
</svg>
