<svg width="32" height="31" viewBox="0 0 32 31" fill="none" xmlns="http://www.w3.org/2000/svg">
<path d="M16 5.16663C17.4145 5.16663 18.771 5.71097 19.7712 6.67991C20.7714 7.64885 21.3333 8.96301 21.3333 10.3333C21.3333 11.7036 20.7714 13.0177 19.7712 13.9867C18.771 14.9556 17.4145 15.5 16 15.5C14.5855 15.5 13.2289 14.9556 12.2287 13.9867C11.2285 13.0177 10.6666 11.7036 10.6666 10.3333C10.6666 8.96301 11.2285 7.64885 12.2287 6.67991C13.2289 5.71097 14.5855 5.16663 16 5.16663ZM16 18.0833C21.8933 18.0833 26.6666 20.3954 26.6666 23.25V25.8333H5.33331V23.25C5.33331 20.3954 10.1066 18.0833 16 18.0833Z" fill="#545454"/>
</svg>
