<svg width="59" height="59" viewBox="0 0 59 59" fill="none" xmlns="http://www.w3.org/2000/svg">
<path d="M47.3874 10.2303H40.1064V6.62646C40.1064 6.30786 39.9786 6.00231 39.751 5.77702C39.5234 5.55174 39.2148 5.42517 38.8929 5.42517C38.5711 5.42517 38.2624 5.55174 38.0349 5.77702C37.8073 6.00231 37.6794 6.30786 37.6794 6.62646V10.2303H20.6905V6.62646C20.6905 6.30786 20.5627 6.00231 20.3351 5.77702C20.1075 5.55174 19.7989 5.42517 19.477 5.42517C19.1552 5.42517 18.8465 5.55174 18.619 5.77702C18.3914 6.00231 18.2635 6.30786 18.2635 6.62646V10.2303H10.9826C9.37397 10.2322 7.8318 10.8657 6.69435 11.9917C5.5569 13.1177 4.91703 14.6444 4.9151 16.2368V47.4703C4.91703 49.0627 5.5569 50.5894 6.69435 51.7154C7.8318 52.8414 9.37397 53.4749 10.9826 53.4768H47.3874C48.9962 53.4755 50.5387 52.8423 51.6763 51.7161C52.8139 50.59 53.4536 49.0629 53.4549 47.4703V16.2368C53.4536 14.6442 52.8139 13.1171 51.6763 11.991C50.5387 10.8648 48.9962 10.2316 47.3874 10.2303ZM51.0279 47.4703C51.0279 48.4261 50.6443 49.3428 49.9616 50.0186C49.2789 50.6945 48.3529 51.0742 47.3874 51.0742H10.9826C10.0171 51.0742 9.09108 50.6945 8.40836 50.0186C7.72564 49.3428 7.34209 48.4261 7.34209 47.4703V27.0484H51.0279V47.4703ZM51.0279 24.6458H7.34209V16.2368C7.34209 14.2474 8.96817 12.6329 10.9826 12.6329H18.2635V16.2368C18.2635 16.5554 18.3914 16.8609 18.619 17.0862C18.8465 17.3115 19.1552 17.4381 19.477 17.4381C19.7989 17.4381 20.1075 17.3115 20.3351 17.0862C20.5627 16.8609 20.6905 16.5554 20.6905 16.2368V12.6329H37.6794V16.2368C37.6794 16.5554 37.8073 16.8609 38.0349 17.0862C38.2624 17.3115 38.5711 17.4381 38.8929 17.4381C39.2148 17.4381 39.5234 17.3115 39.751 17.0862C39.9786 16.8609 40.1064 16.5554 40.1064 16.2368V12.6329H47.3874C48.3529 12.6329 49.2789 13.0126 49.9616 13.6885C50.6443 14.3643 51.0279 15.281 51.0279 16.2368V24.6458Z" fill="black"/>
</svg>
