<svg width="20" height="20" viewBox="0 0 20 20" fill="none" xmlns="http://www.w3.org/2000/svg">
<path d="M17.0199 2.97498C15.6309 1.58658 13.8614 0.641239 11.9351 0.258507C10.0088 -0.124226 8.0123 0.0728377 6.19802 0.824777C4.38373 1.57672 2.83315 2.84976 1.74237 4.48293C0.651585 6.1161 0.0695786 8.03604 0.0699465 9.99998C0.0699461 12.634 1.11598 15.1603 2.97807 17.0233C4.84017 18.8863 7.36589 19.9337 9.99995 19.935C11.3034 19.9355 12.5944 19.6807 13.7999 19.185C15.0016 18.6777 16.0948 17.9444 17.0199 17.025C17.9426 16.1025 18.6745 15.0073 19.1738 13.8019C19.6731 12.5966 19.9301 11.3047 19.9301 9.99998C19.9301 8.69528 19.6731 7.40337 19.1738 6.19801C18.6745 4.99265 17.9426 3.89746 17.0199 2.97498ZM16.3199 16.315C14.89 17.7511 13.0137 18.6575 10.9999 18.885V12.325H12.8799C13.1452 12.325 13.3995 12.2196 13.5871 12.0321C13.7746 11.8445 13.8799 11.5902 13.8799 11.325C13.8799 11.0598 13.7746 10.8054 13.5871 10.6179C13.3995 10.4303 13.1452 10.325 12.8799 10.325H10.9999V7.58498C10.9999 7.31976 11.1053 7.06541 11.2928 6.87787C11.4804 6.69034 11.7347 6.58498 11.9999 6.58498H13.1999C13.4652 6.58498 13.7195 6.47962 13.9071 6.29209C14.0946 6.10455 14.1999 5.8502 14.1999 5.58498C14.1999 5.31976 14.0946 5.06541 13.9071 4.87787C13.7195 4.69034 13.4652 4.58498 13.1999 4.58498H11.4999C10.8369 4.58498 10.201 4.84837 9.73218 5.31721C9.26334 5.78605 8.99995 6.42194 8.99995 7.08498V10.325H7.12995C6.86473 10.325 6.61038 10.4303 6.42284 10.6179C6.2353 10.8054 6.12995 11.0598 6.12995 11.325C6.12995 11.5902 6.2353 11.8445 6.42284 12.0321C6.61038 12.2196 6.86473 12.325 7.12995 12.325H8.99995V18.885C7.14284 18.6731 5.39923 17.8831 4.0154 16.6266C2.63156 15.3702 1.67746 13.7107 1.28785 11.8826C0.898233 10.0545 1.0928 8.15017 1.84408 6.43864C2.59535 4.72711 3.86535 3.29486 5.4747 2.3442C7.08404 1.39354 8.95139 0.972516 10.813 1.1406C12.6746 1.30868 14.4363 2.05737 15.8493 3.28092C17.2624 4.50447 18.2553 6.14104 18.6878 7.95946C19.1204 9.77787 18.9707 11.6862 18.2599 13.415C17.8073 14.4982 17.1484 15.4831 16.3199 16.315Z" fill="#111111"/>
</svg>
