<svg width="45" height="43" viewBox="0 0 45 43" fill="none" xmlns="http://www.w3.org/2000/svg">
<path d="M22.5 0C16.3941 0 15.6263 0.026875 13.2272 0.129C10.8281 0.2365 9.19406 0.596625 7.7625 1.12875C6.26089 1.66845 4.90076 2.51503 3.77719 3.60931C2.63271 4.6835 1.74686 5.98302 1.18125 7.4175C0.624375 8.78275 0.244688 10.3469 0.135 12.6312C0.028125 14.9291 0 15.6601 0 21.5027C0 27.3399 0.028125 28.0709 0.135 30.3634C0.2475 32.6531 0.624375 34.2146 1.18125 35.5825C1.75781 36.9961 2.52563 38.1947 3.77719 39.3907C5.02594 40.5866 6.28031 41.323 7.75969 41.8712C9.19406 42.4034 10.8253 42.7662 13.2216 42.871C15.6234 42.9731 16.3884 43 22.5 43C28.6116 43 29.3738 42.9731 31.7756 42.871C34.1691 42.7635 35.8088 42.4034 37.2403 41.8712C38.741 41.3313 40.1001 40.4847 41.2228 39.3907C42.4744 38.1947 43.2422 36.9961 43.8187 35.5825C44.3728 34.2146 44.7525 32.6531 44.865 30.3634C44.9719 28.0709 45 27.3399 45 21.5C45 15.6601 44.9719 14.9291 44.865 12.6339C44.7525 10.3469 44.3728 8.78275 43.8187 7.4175C43.2532 5.98298 42.3674 4.68344 41.2228 3.60931C40.0996 2.51463 38.7394 1.66798 37.2375 1.12875C35.8031 0.596625 34.1662 0.233813 31.7728 0.129C29.3709 0.026875 28.6088 0 22.4944 0H22.5028H22.5ZM20.4834 3.87538H22.5028C28.5103 3.87538 29.2219 3.89419 31.5928 3.999C33.7866 4.09306 34.9791 4.44513 35.7722 4.73806C36.8212 5.12775 37.5722 5.59537 38.3597 6.34787C39.1472 7.10037 39.6338 7.81525 40.0416 8.82038C40.3509 9.57556 40.7166 10.7151 40.815 12.8113C40.9247 15.0769 40.9472 15.7568 40.9472 21.4946C40.9472 27.2324 40.9247 27.9151 40.815 30.1806C40.7166 32.2769 40.3481 33.4137 40.0416 34.1716C39.6808 35.1051 39.1051 35.9492 38.3569 36.6414C37.5694 37.3939 36.8213 37.8588 35.7694 38.2485C34.9819 38.5441 33.7894 38.8935 31.5928 38.9903C29.2219 39.0924 28.5103 39.1166 22.5028 39.1166C16.4953 39.1166 15.7809 39.0924 13.41 38.9903C11.2163 38.8935 10.0266 38.5441 9.23344 38.2485C8.25609 37.9043 7.37192 37.3551 6.64594 36.6414C5.89711 35.9481 5.32047 35.1032 4.95844 34.1689C4.65188 33.4137 4.28344 32.2742 4.185 30.1779C4.07813 27.9124 4.05563 27.2324 4.05563 21.4892C4.05563 15.7487 4.07813 15.0715 4.185 12.8059C4.28625 10.7097 4.65188 9.57019 4.96125 8.81231C5.36906 7.80988 5.85844 7.09231 6.64594 6.33981C7.43344 5.58731 8.18156 5.12238 9.23344 4.73269C10.0266 4.43706 11.2163 4.08769 13.41 3.99094C15.4856 3.89956 16.29 3.87269 20.4834 3.87V3.87538ZM34.5122 7.44437C34.1576 7.44437 33.8065 7.51111 33.4789 7.64077C33.1514 7.77042 32.8537 7.96046 32.603 8.20004C32.3523 8.43961 32.1534 8.72403 32.0177 9.03705C31.882 9.35007 31.8122 9.68556 31.8122 10.0244C31.8122 10.3632 31.882 10.6987 32.0177 11.0117C32.1534 11.3247 32.3523 11.6091 32.603 11.8487C32.8537 12.0883 33.1514 12.2783 33.4789 12.408C33.8065 12.5376 34.1576 12.6044 34.5122 12.6044C35.2283 12.6044 35.915 12.3326 36.4214 11.8487C36.9277 11.3649 37.2122 10.7086 37.2122 10.0244C37.2122 9.34012 36.9277 8.68388 36.4214 8.20004C35.915 7.7162 35.2283 7.44437 34.5122 7.44437ZM22.5028 10.4597C20.9702 10.4369 19.4481 10.7056 18.0253 11.2503C16.6024 11.7949 15.3071 12.6046 14.2148 13.6321C13.1225 14.6597 12.2551 15.8846 11.663 17.2356C11.0709 18.5866 10.766 20.0367 10.766 21.5013C10.766 22.966 11.0709 24.4161 11.663 25.7671C12.2551 27.118 13.1225 28.343 14.2148 29.3705C15.3071 30.3981 16.6024 31.2078 18.0253 31.7524C19.4481 32.2971 20.9702 32.5658 22.5028 32.5429C25.5362 32.4977 28.4293 31.3145 30.5577 29.2487C32.6861 27.183 33.8791 24.4003 33.8791 21.5013C33.8791 18.6024 32.6861 15.8197 30.5577 13.754C28.4293 11.6882 25.5362 10.505 22.5028 10.4597ZM22.5028 14.3324C24.4922 14.3324 26.4001 15.0876 27.8068 16.4318C29.2135 17.7759 30.0038 19.599 30.0038 21.5C30.0038 23.401 29.2135 25.2241 27.8068 26.5682C26.4001 27.9124 24.4922 28.6676 22.5028 28.6676C20.5134 28.6676 18.6055 27.9124 17.1988 26.5682C15.7921 25.2241 15.0019 23.401 15.0019 21.5C15.0019 19.599 15.7921 17.7759 17.1988 16.4318C18.6055 15.0876 20.5134 14.3324 22.5028 14.3324Z" fill="black"/>
</svg>
