<svg width="50" height="46" viewBox="0 0 50 46" fill="none" xmlns="http://www.w3.org/2000/svg">
<path d="M42.6733 6.73059C39.1763 3.51586 34.7213 1.32702 29.8717 0.440834C25.0221 -0.445348 19.9957 0.0109345 15.428 1.75198C10.8604 3.49303 6.95665 6.44066 4.21049 10.2221C1.46433 14.0036 -0.000925629 18.449 4.38697e-07 22.9964C-4.01124e-07 29.0953 2.63349 34.9446 7.32149 39.2583C12.0095 43.572 18.3682 45.9969 24.9997 46C28.2814 46.0013 31.5316 45.4113 34.5666 44.2634C37.592 43.0889 40.3441 41.3911 42.6733 39.2621C44.9961 37.1262 46.8387 34.5904 48.0958 31.7995C49.353 29.0086 50 26.0173 50 22.9964C50 19.9755 49.353 16.9841 48.0958 14.1932C46.8387 11.4023 44.9961 8.86651 42.6733 6.73059ZM40.911 37.6182C37.3109 40.9433 32.5872 43.042 27.5173 43.5688V28.3797H32.2504C32.9181 28.3797 33.5585 28.1358 34.0306 27.7015C34.5028 27.2673 34.768 26.6784 34.768 26.0643C34.768 25.4502 34.5028 24.8613 34.0306 24.427C33.5585 23.9928 32.9181 23.7489 32.2504 23.7489H27.5173V17.4046C27.5173 16.7906 27.7826 16.2016 28.2547 15.7674C28.7269 15.3332 29.3672 15.0892 30.0349 15.0892H33.0561C33.7238 15.0892 34.3641 14.8453 34.8363 14.4111C35.3084 13.9768 35.5737 13.3879 35.5737 12.7738C35.5737 12.1597 35.3084 11.5708 34.8363 11.1366C34.3641 10.7024 33.7238 10.4584 33.0561 10.4584H28.7761C27.1069 10.4584 25.506 11.0683 24.3256 12.1538C23.1453 13.2394 22.4821 14.7117 22.4821 16.2469V23.7489H17.7742C17.1065 23.7489 16.4662 23.9928 15.994 24.427C15.5219 24.8613 15.2566 25.4502 15.2566 26.0643C15.2566 26.6784 15.5219 27.2673 15.994 27.7015C16.4662 28.1358 17.1065 28.3797 17.7742 28.3797H22.4821V43.5688C17.8067 43.0782 13.417 41.2491 9.93305 38.3398C6.44912 35.4306 4.04707 31.5881 3.06618 27.3553C2.08529 23.1225 2.57515 18.7133 4.46655 14.7504C6.35795 10.7875 9.55531 7.47125 13.607 5.27008C17.6587 3.0689 22.3599 2.09406 27.0466 2.48324C31.7333 2.87242 36.1687 4.60595 39.7261 7.43898C43.2836 10.272 45.7833 14.0613 46.8723 18.2717C47.9613 22.4821 47.5845 26.9007 45.7951 30.9035C44.6554 33.4116 42.9966 35.6921 40.911 37.6182Z" fill="#111111"/>
</svg>
